<svg aria-hidden="true" style="position:absolute;width:0;height:0;overflow:hidden" xmlns="http://www.w3.org/2000/svg">
  <defs>
    <symbol id="icon-phonetablet" viewBox="0 0 23 32">
      <path  d="M19.429 0h-16C1.538 0 0 1.346 0 3v26c0 1.654 1.538 3 3.429 3h16c1.891 0 3.429-1.346 3.429-3V3c0-1.654-1.538-3-3.429-3zm-16 2h16c.631 0 1.143.448 1.143 1v21H2.286V3c0-.552.512-1 1.143-1zm16 28h-16c-.631 0-1.143-.448-1.143-1v-3h18.286v3c0 .552-.512 1-1.143 1z"/>
      <path  d="M5.38 27.293c.446.391.446 1.024 0 1.415s-1.17.391-1.616 0c-.446-.391-.446-1.024 0-1.415s1.17-.391 1.616 0z"/>
    </symbol>
    <symbol id="icon-mailtablet" viewBox="0 0 45 32">
      <path  d="M40.6 0H4.2C1.884 0 0 1.794 0 4v24c0 2.206 1.884 4 4.2 4h36.4c2.316 0 4.2-1.794 4.2-4V4c0-2.206-1.884-4-4.2-4zm0 2.667c.19 0 .371.038.537.103L22.4 18.236 3.663 2.77c.165-.066.346-.103.537-.103h36.4zm0 26.666H4.2c-.772 0-1.4-.598-1.4-1.333V5.587l18.683 15.421c.264.217.591.326.917.326s.654-.108.917-.326L42 5.587V28c0 .736-.628 1.333-1.4 1.333z"/>
    </symbol>
  </defs>
</svg>
